<?xml version="1.0" encoding="UTF-8"?>
<svg width="894px" height="329px" viewBox="0 0 894 329" version="1.1" xmlns="http://www.w3.org/2000/svg" xmlns:xlink="http://www.w3.org/1999/xlink">
    <!-- Generator: Sketch 60.1 (88133) - https://sketch.com -->
    <title>SaturdaysAI Murcia horizontal</title>
    <desc>Created with Sketch.</desc>
    <g id="Page-1" stroke="none" stroke-width="1" fill="none" fill-rule="evenodd">
        <g id="SaturdaysAI-Murcia-horizontal">
            <g id="Capa_1" transform="translate(62.000000, 0.000000)">
                <ellipse id="Oval" fill="#E99C4C" fill-rule="nonzero" cx="72.5" cy="129" rx="11.5" ry="12"></ellipse>
                <ellipse id="Oval" fill="#E99C4C" fill-rule="nonzero" cx="191.5" cy="129" rx="11.5" ry="12"></ellipse>
                <ellipse id="Oval" fill="#E99C4C" fill-rule="nonzero" cx="164.5" cy="84" rx="11.5" ry="12"></ellipse>
                <ellipse id="Oval" fill="#E99C4C" fill-rule="nonzero" cx="100.5" cy="84" rx="11.5" ry="12"></ellipse>
                <ellipse id="Oval" fill="#E99C4C" fill-rule="nonzero" cx="48.5" cy="45" rx="11.5" ry="12"></ellipse>
                <ellipse id="Oval" fill="#E99C4C" fill-rule="nonzero" cx="132.5" cy="12" rx="11.5" ry="12"></ellipse>
                <ellipse id="Oval" fill="#E99C4C" fill-rule="nonzero" cx="210.5" cy="44" rx="11.5" ry="12"></ellipse>
                <ellipse id="Oval" fill="#E99C4C" fill-rule="nonzero" cx="11.5" cy="115" rx="11.5" ry="12"></ellipse>
                <ellipse id="Oval" fill="#E99C4C" fill-rule="nonzero" cx="132.5" cy="165" rx="11.5" ry="12"></ellipse>
                <ellipse id="Oval" fill="#E99C4C" fill-rule="nonzero" cx="252.5" cy="114" rx="11.5" ry="12"></ellipse>
                <ellipse id="Oval" fill="#E99C4C" fill-rule="nonzero" cx="34.5" cy="198" rx="11.5" ry="12"></ellipse>
                <ellipse id="Oval" fill="#E99C4C" fill-rule="nonzero" cx="229.5" cy="197" rx="11.5" ry="12"></ellipse>
                <line x1="49" y1="45" x2="12" y2="115" id="Path" stroke="#E99C4C" stroke-width="4"></line>
                <line x1="132" y1="11" x2="48" y2="45" id="Path" stroke="#E99C4C" stroke-width="4"></line>
                <line x1="209" y1="44" x2="132" y2="11" id="Path" stroke="#E99C4C" stroke-width="4"></line>
                <line x1="252" y1="114" x2="210" y2="44" id="Path" stroke="#E99C4C" stroke-width="4"></line>
                <line x1="229" y1="197" x2="252" y2="114" id="Path" stroke="#E99C4C" stroke-width="4"></line>
                <line x1="192" y1="128" x2="252" y2="113" id="Path" stroke="#E99C4C" stroke-width="4"></line>
                <line x1="209" y1="44" x2="163" y2="85" id="Path" stroke="#E99C4C" stroke-width="4"></line>
                <line x1="49" y1="45" x2="101" y2="85" id="Path" stroke="#E99C4C" stroke-width="4"></line>
                <line x1="133" y1="11" x2="101" y2="85" id="Path" stroke="#E99C4C" stroke-width="4"></line>
                <line x1="164" y1="84.5" x2="101" y2="84.5" id="Path" stroke="#E99C4C" stroke-width="4"></line>
                <line x1="132" y1="11" x2="164" y2="85" id="Path" stroke="#E99C4C" stroke-width="4"></line>
                <line x1="132" y1="166" x2="164" y2="85" id="Path" stroke="#E99C4C" stroke-width="4"></line>
                <line x1="12" y1="116" x2="72" y2="128" id="Path" stroke="#E99C4C" stroke-width="4"></line>
                <line x1="35" y1="198" x2="12" y2="115" id="Path" stroke="#E99C4C" stroke-width="4"></line>
                <line x1="72" y1="128" x2="37" y2="195" id="Path" stroke="#E99C4C" stroke-width="4"></line>
                <line x1="133" y1="165" x2="73" y2="128" id="Path" stroke="#E99C4C" stroke-width="4"></line>
                <line x1="192" y1="128" x2="133" y2="165" id="Path" stroke="#E99C4C" stroke-width="4"></line>
                <line x1="101" y1="85" x2="72" y2="128" id="Path" stroke="#E99C4C" stroke-width="4"></line>
                <line x1="164" y1="85" x2="192" y2="128" id="Path" stroke="#E99C4C" stroke-width="4"></line>
                <line x1="229" y1="196" x2="193" y2="128" id="Path" stroke="#E99C4C" stroke-width="4"></line>
                <line x1="101" y1="85" x2="133" y2="166" id="Path" stroke="#E99C4C" stroke-width="4"></line>
                <line x1="35" y1="197" x2="132" y2="247" id="Path" stroke="#E99C4C" stroke-width="4"></line>
                <line x1="229" y1="196" x2="132" y2="247" id="Path" stroke="#E99C4C" stroke-width="4"></line>
            </g>
            <g id="Capa_2" transform="translate(359.000000, 71.000000)" fill="#E99C4C" font-family="Helvetica-Bold, Helvetica" font-size="85" font-weight="bold">
                <text id="Saturdays.AI-Murcia">
                    <tspan x="20.1855469" y="82">Saturdays.AI</tspan>
                    <tspan x="539.814453" y="82" font-family="Helvetica" font-size="100" font-weight="normal"></tspan>
                    <tspan x="128.1" y="184" font-family="Helvetica-Light, Helvetica" font-size="100" font-weight="300">Murcia</tspan>
                </text>
            </g>
            <path d="M36.5117711,58 L36.5117711,67.5621996 L40.2600854,69.1873475 L40.2600854,84.6232088 C47.1850002,90.5131017 50.6474576,96.2528562 50.6474576,101.842472 L50.6474576,122.932874 L56.1429192,122.932874 L53.0911269,127.586661 L53.091,161.339 L53.0927427,161.11961 C53.1509121,153.92458 54.7796556,150.327064 57.9789733,150.327064 L57.9789733,138.731401 L61.5083226,138.731401 L61.5083226,150.327064 C65.1628189,150.327064 66.9900671,154.059055 66.9900671,161.523035 L66.9900671,192.889301 L69.5902124,192.889301 L66.9900671,197.153032 L66.9900671,231.290775 C71.8786756,231.290775 68.8070698,223.837777 77.1569184,223.837777 L78.5703157,219.948216 L77.8224818,217.965221 L79.0864837,214.232809 L80.9514961,217.965221 L79.8744527,220.275376 L80.9514961,223.837777 C87.2205767,223.837777 87.2205767,231.290775 90.7503048,231.290775 L113.954748,231.290775 C120.522934,231.290775 126.028556,222.668209 121.1369,219.297701 L121.1369,217.965221 C129.148172,215.560469 139.746381,210.908712 139.746381,194.44851 L139.746381,185.314408 L135.547944,181.735938 L135.547944,179.672041 L139.071196,179.672041 L139.071196,174.75995 L140.888961,174.75995 C140.888961,172.398566 139.746381,171.99976 139.746381,170.474029 L142.092506,167.042654 L144.316957,170.474029 L142.817986,174.75995 L144.316957,174.75995 L144.316957,179.672041 C147.382635,179.672041 148.551549,174.989427 147.823698,165.6242 L145.992724,164.081983 L145.992724,161.523035 L150.635696,161.523035 L150.635696,157.111195 L153.776903,153.005211 L152.446856,149.42877 L154.167585,146.890617 L156.19771,149.42877 C155.174398,151.522058 154.827916,152.714205 155.158262,153.005211 C155.475352,153.284539 158.154841,156.832149 158.471186,157.111195 C158.607521,157.231454 158.607521,158.702067 158.471186,161.523035 C166.296894,161.523035 166.478888,153.761648 166.48312,144.756293 L166.483221,138.731401 L163.938198,136.26071 C173.596919,130.47801 183.174646,127.586661 192.671379,127.586661 C202.168111,127.586661 211.8024,130.47801 221.574245,136.26071 L219.486965,138.731401 L219.486965,144.111026 C219.486965,153.953214 219.486965,161.523035 228.136843,161.523035 L228.136843,157.111195 L231.2275,153.005211 L230.088984,149.42877 L231.629613,146.28423 L233.490053,149.42877 L232.178296,153.005211 L234.910785,157.111195 L234.910785,161.523035 L240.120729,161.523035 L240.120729,164.081983 L238.311601,165.6242 C237.840479,174.310761 239.136995,178.654041 242.20115,178.654041 L242.20115,174.75995 L243.994529,174.75995 L242.932218,170.474029 L244.646343,167.042654 L246.194847,170.474029 L245.328132,174.75995 L247.0608,174.75995 L247.0608,178.654041 L250.144472,178.654041 L250.144472,181.735938 L247.0608,184.580961 L247.0608,194.44851 C249.239103,209.703123 256.425997,217.33043 268.621481,217.33043 C268.787065,218.1595 268.787065,218.691409 268.621481,218.926159 C263.433892,226.280663 268.621481,231.290775 273.883245,231.290775 L288.954683,231.290775 C291.270326,231.290775 293.35182,223.837777 299.38936,223.837777 L300.422712,221.602022 L299.38936,218.926159 C300.078261,218.926159 300.540916,217.658858 300.777323,215.124256 L302.094161,215.124256 C302.384802,217.658858 302.863121,218.926159 303.529118,218.926159 L302.094161,221.602022 L303.529118,223.837777 C310.75763,225.152449 314.884414,236.167486 317.664297,236.167486 C315.980896,237.142076 315.175654,237.860411 315.24857,238.322491 C315.653494,240.888569 314.851382,255.407341 315.24857,257.867099 C315.347105,258.477323 319.358905,258.986721 319.45666,259.587571 C319.493831,259.816047 318.33829,259.802471 318.375298,260.029617 C318.559107,261.157803 318.194543,262.138944 318.375298,263.23477 C318.48802,263.918148 322.085763,265.003463 322.085763,266.866752 L330,267.519804 L330,329 L330,329 C330.015837,328.908225 220.877133,328.908225 2.58388807,329 L2.58388807,280.255709 L0,275.958501 L2.58388807,275.958501 L2.58388807,240.102789 L0,235.446466 L2.58388807,235.446466 L2.58388807,197.153032 L0,192.889301 L2.58388807,192.889301 L2.58388807,161.523035 C2.58388807,154.059055 4.4766733,150.327064 8.26224375,150.327064 L8.26224375,138.731401 L11.868815,138.731401 L11.868815,150.327064 C14.9115088,150.327064 16.4605165,153.92458 16.5158382,161.11961 L16.517,161.441 L16.5173749,127.586661 L13.1206239,122.932874 L18.5668056,122.932874 L18.5668056,101.842472 C18.5668056,96.3049312 22.2687189,90.5651768 29.6725456,84.6232088 L29.6725456,69.1873475 L33.4696316,67.5621996 L33.4696316,58 L36.5117711,58 Z M133,300 L119,300 L119,327 L133,327 L133,300 Z M267,300 L253,300 L253,327 L267,327 L267,300 Z M202,292 L185,292 L185,327 L202,327 L202,292 Z M300,296.884348 L300,306 L306,306 L306,296.884348 C306,293.038551 300,293.038551 300,296.884348 Z M227,288.596979 L227,306 L233,306 L233,288.596979 C233,285.13434 227,285.13434 227,288.596979 Z M154,287.596979 L154,305 L160,305 L160,287.596979 C160,284.13434 154,284.13434 154,287.596979 Z M76,295.884348 L76,305 L82,305 L82,295.884348 C82,292.038551 76,292.038551 76,295.884348 Z M257,279.365072 L257,290 L264,290 L264,279.365072 C264,274.878309 257,274.878309 257,279.365072 Z M123,278.365072 L123,289 L130,289 L130,278.365072 C130,273.878309 123,273.878309 123,278.365072 Z M227,268.677875 L227,283 L233,283 L233,268.677875 C233,265.107375 227,265.107375 227,268.677875 Z M32,271.365072 L32,282 L38,282 L38,271.365072 C38,266.878309 32,266.878309 32,271.365072 Z M154,267.677875 L154,282 L160,282 L160,267.677875 C160,264.107375 154,264.107375 154,267.677875 Z M257,259.884348 L257,269 L264,269 L264,259.884348 C264,256.038551 257,256.038551 257,259.884348 Z M123,258.884348 L123,268 L130,268 L130,258.884348 C130,255.038551 123,255.038551 123,258.884348 Z M189,255.884348 L189,265 L199,265 L199,255.884348 C199,252.038551 189,252.038551 189,255.884348 Z M311,237 L308,237 L308,249 L311,249 L311,237 Z M297,237 L294,237 L294,249 L297,249 L297,237 Z M74,237 L71,237 L71,249 L74,249 L74,237 Z M88,237 L85,237 L85,249 L88,249 L88,237 Z M306,237 L299,237 L299,249 L306,249 L306,237 Z M83,237 L76,237 L76,249 L83,249 L83,237 Z M185,212.293602 L185,239 L202,239 L202,212.293602 C197.298277,209.235466 189.646297,209.235466 185,212.293602 Z M32,213.365072 L32,224 L38,224 L38,213.365072 C38,208.878309 32,208.878309 32,213.365072 Z M6,170.365072 L6,181 L12,181 L12,170.365072 C12,165.878309 6,165.878309 6,170.365072 Z M57,170.365072 L57,181 L63,181 L63,170.365072 C63,165.878309 57,165.878309 57,170.365072 Z M32,142.086159 L32,155 L38,155 L38,142.086159 C38,136.637947 32,136.637947 32,142.086159 Z M43,147.403623 L43,155 L48,155 L48,147.403623 C48,144.198792 43,144.198792 43,147.403623 Z M23,147.403623 L23,155 L28,155 L28,147.403623 C28,144.198792 23,144.198792 23,147.403623 Z M43,136.442174 L43,141 L48,141 L48,136.442174 C48,134.519275 43,134.519275 43,136.442174 Z M23,136.442174 L23,141 L28,141 L28,136.442174 C28,134.519275 23,134.519275 23,136.442174 Z M35.5,99 C34.1192881,99 33,100.119288 33,101.5 C33,102.880712 34.1192881,104 35.5,104 C36.8807119,104 38,102.880712 38,101.5 C38,100.119288 36.8807119,99 35.5,99 Z M44.5,99 C43.6715729,99 43,100.119288 43,101.5 C43,102.880712 43.6715729,104 44.5,104 C45.3284271,104 46,102.880712 46,101.5 C46,100.119288 45.3284271,99 44.5,99 Z M26.5,99 C25.6715729,99 25,100.119288 25,101.5 C25,102.880712 25.6715729,104 26.5,104 C27.3284271,104 28,102.880712 28,101.5 C28,100.119288 27.3284271,99 26.5,99 Z M34,73.403623 L34,81 L36,81 L36,73.403623 C36,70.1987923 34,70.1987923 34,73.403623 Z M37,73.403623 L37,81 L39,81 L39,73.403623 C39,70.1987923 37,70.1987923 37,73.403623 Z M31,73.403623 L31,81 L33,81 L33,73.403623 C33,70.1987923 31,70.1987923 31,73.403623 Z" id="Combined-Shape" fill="#E99C4C" fill-rule="nonzero"></path>
        </g>
    </g>
</svg>