<?xml version="1.0" encoding="UTF-8"?>
<svg width="1160px" height="500px" viewBox="0 0 1160 500" version="1.1" xmlns="http://www.w3.org/2000/svg" xmlns:xlink="http://www.w3.org/1999/xlink">
    <!-- Generator: Sketch 58 (84663) - https://sketch.com -->
    <title>SaturdaysAI Murcia horizontal</title>
    <desc>Created with Sketch.</desc>
    <g id="Page-1" stroke="none" stroke-width="1" fill="none" fill-rule="evenodd">
        <g id="Artboard" transform="translate(-72.000000, -61.000000)">
            <g id="SaturdaysAI-Murcia-horizontal" transform="translate(72.000000, 61.000000)">
                <g id="Group">
                    <g id="Capa_1" transform="translate(93.818985, 0.000000)">
                        <ellipse id="Oval" fill="#E99C4C" fill-rule="nonzero" cx="109.727239" cy="195.850202" rx="17.4050104" ry="18.2186235"></ellipse>
                        <ellipse id="Oval" fill="#E99C4C" fill-rule="nonzero" cx="289.83126" cy="195.850202" rx="17.4050104" ry="18.2186235"></ellipse>
                        <ellipse id="Oval" fill="#E99C4C" fill-rule="nonzero" cx="248.967322" cy="127.530364" rx="17.4050104" ry="18.2186235"></ellipse>
                        <ellipse id="Oval" fill="#E99C4C" fill-rule="nonzero" cx="152.104656" cy="127.530364" rx="17.4050104" ry="18.2186235"></ellipse>
                        <ellipse id="Oval" fill="#E99C4C" fill-rule="nonzero" cx="73.4037394" cy="68.3198381" rx="17.4050104" ry="18.2186235"></ellipse>
                        <ellipse id="Oval" fill="#E99C4C" fill-rule="nonzero" cx="200.535989" cy="18.2186235" rx="17.4050104" ry="18.2186235"></ellipse>
                        <ellipse id="Oval" fill="#E99C4C" fill-rule="nonzero" cx="318.587364" cy="66.8016194" rx="17.4050104" ry="18.2186235"></ellipse>
                        <ellipse id="Oval" fill="#E99C4C" fill-rule="nonzero" cx="17.4050104" cy="174.595142" rx="17.4050104" ry="18.2186235"></ellipse>
                        <ellipse id="Oval" fill="#E99C4C" fill-rule="nonzero" cx="200.535989" cy="250.506073" rx="17.4050104" ry="18.2186235"></ellipse>
                        <ellipse id="Oval" fill="#E99C4C" fill-rule="nonzero" cx="382.153489" cy="173.076923" rx="17.4050104" ry="18.2186235"></ellipse>
                        <ellipse id="Oval" fill="#E99C4C" fill-rule="nonzero" cx="52.2150311" cy="300.607287" rx="17.4050104" ry="18.2186235"></ellipse>
                        <ellipse id="Oval" fill="#E99C4C" fill-rule="nonzero" cx="347.343468" cy="299.089069" rx="17.4050104" ry="18.2186235"></ellipse>
                        <path d="M74.160479,68.3198381 L18.1617499,174.595142" id="Path" stroke="#E99C4C" stroke-width="4"></path>
                        <path d="M199.779249,16.7004049 L72.6469998,68.3198381" id="Path" stroke="#E99C4C" stroke-width="4"></path>
                        <path d="M316.317145,66.8016194 L199.779249,16.7004049" id="Path" stroke="#E99C4C" stroke-width="4"></path>
                        <path d="M381.396749,173.076923 L317.830624,66.8016194" id="Path" stroke="#E99C4C" stroke-width="4"></path>
                        <path d="M346.586728,299.089069 L381.396749,173.076923" id="Path" stroke="#E99C4C" stroke-width="4"></path>
                        <path d="M290.587999,194.331984 L381.396749,171.558704" id="Path" stroke="#E99C4C" stroke-width="4"></path>
                        <path d="M316.317145,66.8016194 L246.697103,129.048583" id="Path" stroke="#E99C4C" stroke-width="4"></path>
                        <path d="M74.160479,68.3198381 L152.861395,129.048583" id="Path" stroke="#E99C4C" stroke-width="4"></path>
                        <path d="M201.292729,16.7004049 L152.861395,129.048583" id="Path" stroke="#E99C4C" stroke-width="4"></path>
                        <path d="M248.210583,128.289474 L152.861395,128.289474" id="Path" stroke="#E99C4C" stroke-width="4"></path>
                        <path d="M199.779249,16.7004049 L248.210583,129.048583" id="Path" stroke="#E99C4C" stroke-width="4"></path>
                        <path d="M199.779249,252.024291 L248.210583,129.048583" id="Path" stroke="#E99C4C" stroke-width="4"></path>
                        <path d="M18.1617499,176.11336 L108.9705,194.331984" id="Path" stroke="#E99C4C" stroke-width="4"></path>
                        <path d="M52.9717707,300.607287 L18.1617499,174.595142" id="Path" stroke="#E99C4C" stroke-width="4"></path>
                        <path d="M108.9705,194.331984 L55.998729,296.052632" id="Path" stroke="#E99C4C" stroke-width="4"></path>
                        <path d="M201.292729,250.506073 L110.483979,194.331984" id="Path" stroke="#E99C4C" stroke-width="4"></path>
                        <path d="M290.587999,194.331984 L201.292729,250.506073" id="Path" stroke="#E99C4C" stroke-width="4"></path>
                        <path d="M152.861395,129.048583 L108.9705,194.331984" id="Path" stroke="#E99C4C" stroke-width="4"></path>
                        <path d="M248.210583,129.048583 L290.587999,194.331984" id="Path" stroke="#E99C4C" stroke-width="4"></path>
                        <path d="M346.586728,297.57085 L292.101478,194.331984" id="Path" stroke="#E99C4C" stroke-width="4"></path>
                        <path d="M152.861395,129.048583 L201.292729,252.024291" id="Path" stroke="#E99C4C" stroke-width="4"></path>
                        <path d="M52.9717707,299.089069 L199.779249,375" id="Path" stroke="#E99C4C" stroke-width="4"></path>
                        <path d="M346.586728,297.57085 L199.779249,375" id="Path" stroke="#E99C4C" stroke-width="4"></path>
                    </g>
                    <path d="M55.3208653,88.4955752 L55.3208653,103.015455 L61.0001293,105.483188 L61.0001293,128.922026 C71.4924246,137.865631 76.7385722,146.581256 76.7385722,155.068901 L76.7385722,187.09397 L85.065029,187.09397 L80.4411013,194.160589 L80.441,245.245575 L80.4426127,245.209572 C80.5121368,234.197278 82.9802423,228.691131 87.8469293,228.691131 L87.8469293,211.083504 L93.1944282,211.083504 L93.1944282,228.691131 C98.7315438,228.691131 101.500102,234.358033 101.500102,245.691837 L101.500102,293.320462 L105.439716,293.320462 L101.500102,299.794795 L101.500102,351.631813 C108.907084,351.631813 104.253136,340.314687 116.904422,340.314687 L119.045933,334.408518 L117.912851,331.397407 L119.828006,325.729863 L122.653782,331.397407 L121.021898,334.9053 L122.653782,340.314687 C132.152389,340.314687 132.152389,351.631813 137.500462,351.631813 L172.658708,351.631813 C182.610506,351.631813 190.952358,338.538736 183.540757,333.420732 L183.540757,331.397407 C195.679048,327.745871 211.73694,320.682333 211.73694,295.688069 L211.73694,281.818241 L205.375672,276.384454 L205.375672,273.250495 L210.713934,273.250495 L210.713934,265.79165 L213.468123,265.79165 C213.468123,262.205966 211.73694,261.600394 211.73694,259.283621 L215.291676,254.073193 L218.662055,259.283621 L216.390889,265.79165 L218.662055,265.79165 L218.662055,273.250495 C223.307023,273.250495 225.078105,266.140103 223.9753,251.919319 L221.201097,249.577514 L221.201097,245.691837 L228.235903,245.691837 L228.235903,238.992605 L232.995308,232.757806 L230.980085,227.3271 L233.58725,223.473001 L236.663198,227.3271 C235.112725,230.505688 234.587751,232.315923 235.088276,232.757806 C235.568715,233.181957 239.628546,238.568883 240.107858,238.992605 C240.314425,239.175214 240.314425,241.408292 240.107858,245.691837 C252.004515,245.691837 252.242449,233.82773 252.247207,220.095295 L252.247304,211.083504 L248.391209,207.331842 C263.025635,198.551007 277.537343,194.160589 291.926331,194.160589 C306.31532,194.160589 320.912727,198.551007 335.718552,207.331842 L332.556007,211.083504 L332.556846,221.028611 C332.576977,235.098487 333.080243,245.691837 345.661883,245.691837 L345.661883,238.992605 L350.344697,232.757806 L348.619673,227.3271 L350.953959,222.552222 L353.772808,227.3271 L351.785296,232.757806 L355.925432,238.992605 L355.925432,245.691837 L363.819286,245.691837 L363.819286,249.577514 L361.078183,251.919319 C360.364362,265.10957 362.32878,271.704696 366.971439,271.704696 L366.971439,265.79165 L369.68868,265.79165 L368.079119,259.283621 L370.676277,254.073193 L373.022495,259.283621 L371.709291,265.79165 L374.334545,265.79165 L374.334545,271.704696 L379.006775,271.704696 L379.006775,276.384454 L374.334545,280.704526 L374.334545,295.688069 C377.635005,318.851688 388.524238,330.433497 407.002245,330.433497 C407.253128,331.692412 407.253128,332.500099 407.002245,332.856558 C399.14226,344.024126 407.002245,351.631813 414.974613,351.631813 L437.810125,351.631813 C441.318676,351.631813 444.472455,340.314687 453.620242,340.314687 L455.185927,336.919767 L453.620242,332.856558 C454.664032,332.856558 455.365024,330.932204 455.723217,327.083496 L457.718426,327.083496 C458.158791,330.932204 458.883516,332.856558 459.892604,332.856558 L457.718426,336.919767 L459.892604,340.314687 C470.844894,342.310971 477.097598,359.036936 481.309541,359.036936 C478.758934,360.516818 477.53887,361.607586 477.649348,362.309239 C478.262869,366.205742 477.047549,388.252011 477.649348,391.987072 C477.798644,392.913677 483.877129,393.68718 484.025242,394.599551 C484.081563,394.946484 482.330743,394.92587 482.386815,395.270784 C482.665313,396.983895 482.112944,398.473726 482.386815,400.137701 C482.557606,401.175387 488.008732,402.823401 488.008732,405.652744 L500,406.644382 L500,500 C500.023995,499.860643 334.662322,499.860643 3.91498193,500 L3.91498193,425.983426 L0,419.45826 L3.91498193,419.45826 L3.91498193,365.012562 L0,357.942092 L3.91498193,357.942092 L3.91498193,299.794795 L0,293.320462 L3.91498193,293.320462 L3.91498193,245.691837 C3.91498193,234.358033 6.78283833,228.691131 12.5185511,228.691131 L12.5185511,211.083504 L17.983053,211.083504 L17.983053,228.691131 C22.6114893,228.691131 24.9587678,234.197278 25.0248883,245.209572 L25.026,245.316575 L25.0263257,194.160589 L19.8797332,187.09397 L28.1315237,187.09397 L28.1315237,155.068901 C28.1315237,146.660331 33.7404832,137.944706 44.9584024,128.922026 L44.9584024,105.483188 L50.711563,103.015455 L50.711563,88.4955752 L55.3208653,88.4955752 Z M201.515152,455.964471 L180.30303,455.964471 L180.30303,496.963067 L201.515152,496.963067 L201.515152,455.964471 Z M404.545455,455.964471 L383.333333,455.964471 L383.333333,496.963067 L404.545455,496.963067 L404.545455,455.964471 Z M306.060606,443.816739 L280.30303,443.816739 L280.30303,496.963067 L306.060606,496.963067 L306.060606,443.816739 Z M454.545455,451.233457 L454.545455,465.07527 L463.636364,465.07527 L463.636364,451.233457 C463.636364,445.393744 454.545455,445.393744 454.545455,451.233457 Z M343.939394,438.649365 L343.939394,465.07527 L353.030303,465.07527 L353.030303,438.649365 C353.030303,433.391465 343.939394,433.391465 343.939394,438.649365 Z M115.151515,449.714991 L115.151515,463.556804 L124.242424,463.556804 L124.242424,449.714991 C124.242424,443.875277 115.151515,443.875277 115.151515,449.714991 Z M233.333333,437.130899 L233.333333,463.556804 L242.424242,463.556804 L242.424242,437.130899 C242.424242,431.872998 233.333333,431.872998 233.333333,437.130899 Z M389.393939,424.631024 L389.393939,440.779806 L400,440.779806 L400,424.631024 C400,417.818025 389.393939,417.818025 389.393939,424.631024 Z M186.363636,423.112558 L186.363636,439.26134 L196.969697,439.26134 L196.969697,423.112558 C196.969697,416.299559 186.363636,416.299559 186.363636,423.112558 Z M343.939394,408.402873 L343.939394,430.15054 L353.030303,430.15054 L353.030303,408.402873 C353.030303,402.981189 343.939394,402.981189 343.939394,408.402873 Z M233.333333,406.884406 L233.333333,428.632074 L242.424242,428.632074 L242.424242,406.884406 C242.424242,401.462722 233.333333,401.462722 233.333333,406.884406 Z M48.4848485,412.483292 L48.4848485,428.632074 L57.5757576,428.632074 L57.5757576,412.483292 C57.5757576,405.670293 48.4848485,405.670293 48.4848485,412.483292 Z M389.393939,395.050196 L389.393939,408.892009 L400,408.892009 L400,395.050196 C400,389.210483 389.393939,389.210483 389.393939,395.050196 Z M186.363636,393.53173 L186.363636,407.373543 L196.969697,407.373543 L196.969697,393.53173 C196.969697,387.692016 186.363636,387.692016 186.363636,393.53173 Z M286.363636,388.97633 L286.363636,402.818143 L301.515152,402.818143 L301.515152,388.97633 C301.515152,383.136617 286.363636,383.136617 286.363636,388.97633 Z M471.212121,360.301081 L466.666667,360.301081 L466.666667,378.522679 L471.212121,378.522679 L471.212121,360.301081 Z M450,360.301081 L445.454545,360.301081 L445.454545,378.522679 L450,378.522679 L450,360.301081 Z M112.121212,360.301081 L107.575758,360.301081 L107.575758,378.522679 L112.121212,378.522679 L112.121212,360.301081 Z M133.333333,360.301081 L128.787879,360.301081 L128.787879,378.522679 L133.333333,378.522679 L133.333333,360.301081 Z M463.636364,360.301081 L453.030303,360.301081 L453.030303,378.522679 L463.636364,378.522679 L463.636364,360.301081 Z M125.757576,360.301081 L115.151515,360.301081 L115.151515,378.522679 L125.757576,378.522679 L125.757576,360.301081 Z M280.30303,322.785244 L280.30303,363.338014 L306.060606,363.338014 L306.060606,322.785244 C298.936783,318.141566 287.342874,318.141566 280.30303,322.785244 Z M48.4848485,324.412234 L48.4848485,340.561016 L57.5757576,340.561016 L57.5757576,324.412234 C57.5757576,317.599235 48.4848485,317.599235 48.4848485,324.412234 Z M9.09090909,259.118174 L9.09090909,275.266956 L18.1818182,275.266956 L18.1818182,259.118174 C18.1818182,252.305175 9.09090909,252.305175 9.09090909,259.118174 Z M86.3636364,259.118174 L86.3636364,275.266956 L95.4545455,275.266956 L95.4545455,259.118174 C95.4545455,252.305175 86.3636364,252.305175 86.3636364,259.118174 Z M48.4848485,216.177592 L48.4848485,235.786827 L57.5757576,235.786827 L57.5757576,216.177592 C57.5757576,207.904664 48.4848485,207.904664 48.4848485,216.177592 Z M65.1515152,224.251983 L65.1515152,235.786827 L72.7272727,235.786827 L72.7272727,224.251983 C72.7272727,219.385555 65.1515152,219.385555 65.1515152,224.251983 Z M34.8484848,224.251983 L34.8484848,235.786827 L42.4242424,235.786827 L42.4242424,224.251983 C42.4242424,219.385555 34.8484848,219.385555 34.8484848,224.251983 Z M65.1515152,207.607389 L65.1515152,214.528296 L72.7272727,214.528296 L72.7272727,207.607389 C72.7272727,204.687532 65.1515152,204.687532 65.1515152,207.607389 Z M34.8484848,207.607389 L34.8484848,214.528296 L42.4242424,214.528296 L42.4242424,207.607389 C42.4242424,204.687532 34.8484848,204.687532 34.8484848,207.607389 Z M53.7878788,150.752702 C51.6958911,150.752702 50,152.452304 50,154.548868 C50,156.645433 51.6958911,158.345035 53.7878788,158.345035 C55.8798665,158.345035 57.5757576,156.645433 57.5757576,154.548868 C57.5757576,152.452304 55.8798665,150.752702 53.7878788,150.752702 Z M67.4242424,150.752702 C66.1690498,150.752702 65.1515152,152.452304 65.1515152,154.548868 C65.1515152,156.645433 66.1690498,158.345035 67.4242424,158.345035 C68.679435,158.345035 69.6969697,156.645433 69.6969697,154.548868 C69.6969697,152.452304 68.679435,150.752702 67.4242424,150.752702 Z M40.1515152,150.752702 C38.8963225,150.752702 37.8787879,152.452304 37.8787879,154.548868 C37.8787879,156.645433 38.8963225,158.345035 40.1515152,158.345035 C41.4067078,158.345035 42.4242424,156.645433 42.4242424,154.548868 C42.4242424,152.452304 41.4067078,150.752702 40.1515152,150.752702 Z M51.5151515,111.885461 L51.5151515,123.420305 L54.5454545,123.420305 L54.5454545,111.885461 C54.5454545,107.019033 51.5151515,107.019033 51.5151515,111.885461 Z M56.0606061,111.885461 L56.0606061,123.420305 L59.0909091,123.420305 L59.0909091,111.885461 C59.0909091,107.019033 56.0606061,107.019033 56.0606061,111.885461 Z M46.969697,111.885461 L46.969697,123.420305 L50,123.420305 L50,111.885461 C50,107.019033 46.969697,107.019033 46.969697,111.885461 Z" id="Combined-Shape" fill="#E99C4C" fill-rule="nonzero"></path>
                </g>
                <g id="Capa_2" transform="translate(512.000000, 25.000000)" fill="#E99C4C" font-size="100">
                    <text id="MACHINE-LEARNING" font-family="DINCondensed-Bold, DIN Condensed" font-style="condensed" font-weight="bold">
                        <tspan x="43.45" y="385">MACHINE LEARNING</tspan>
                    </text>
                    <text id="Saturdays.AI-Murcia" font-family="Helvetica-Light, Helvetica" font-weight="300">
                        <tspan x="43.7" y="97">Saturdays.AI</tspan>
                        <tspan x="177.1" y="217">Murcia</tspan>
                    </text>
                </g>
            </g>
        </g>
    </g>
</svg>